<?xml version="1.0" encoding="UTF-8" standalone="no"?>
<!-- Created with Inkscape (http://www.inkscape.org/) -->

<svg
   xmlns:dc="http://purl.org/dc/elements/1.1/"
   xmlns:cc="http://creativecommons.org/ns#"
   xmlns:rdf="http://www.w3.org/1999/02/22-rdf-syntax-ns#"
   xmlns:svg="http://www.w3.org/2000/svg"
   xmlns="http://www.w3.org/2000/svg"
   xmlns:sodipodi="http://sodipodi.sourceforge.net/DTD/sodipodi-0.dtd"
   xmlns:inkscape="http://www.inkscape.org/namespaces/inkscape"
   width="16"
   height="16"
   viewBox="0 0 4.2333331 4.2333334"
   version="1.1"
   id="svg8"
   sodipodi:docname="org.gnome.Cuer-16.svg"
   inkscape:version="0.92.2 2405546, 2018-03-11"
   inkscape:export-filename="/home/fabio/progetti/cuer/cuer/data/cuer.png"
   inkscape:export-xdpi="96.000008"
   inkscape:export-ydpi="96.000008">
  <defs
     id="defs2">
    <clipPath
       clipPathUnits="userSpaceOnUse"
       id="clipPath4712">
      <path
         style="opacity:1;fill:#fce94f;fill-opacity:1;stroke:none;stroke-width:8.91499424;stroke-linecap:round;stroke-miterlimit:4;stroke-dasharray:none;stroke-opacity:1"
         d="M -7.9249821,341.88437 V 475.95534 H 136.15959 V 341.88437 Z M 78.581392,366.2056 A 30.511927,30.511927 0 0 1 109.09157,396.71578 30.511927,30.511927 0 0 1 78.581392,427.22597 30.511927,30.511927 0 0 1 48.071208,396.71578 30.511927,30.511927 0 0 1 78.581392,366.2056 Z"
         id="path4714"
         inkscape:connector-curvature="0" />
    </clipPath>
  </defs>
  <sodipodi:namedview
     id="base"
     pagecolor="#555753"
     bordercolor="#666666"
     borderopacity="1.0"
     inkscape:pageopacity="1"
     inkscape:pageshadow="2"
     inkscape:zoom="22.627417"
     inkscape:cx="3.2329"
     inkscape:cy="6.1060135"
     inkscape:document-units="mm"
     inkscape:current-layer="g53807"
     showgrid="true"
     inkscape:snap-page="false"
     units="px"
     inkscape:snap-global="false"
     inkscape:window-width="1920"
     inkscape:window-height="1016"
     inkscape:window-x="0"
     inkscape:window-y="27"
     inkscape:window-maximized="1"
     inkscape:pagecheckerboard="true"
     showguides="true"
     showborder="false">
    <inkscape:grid
       type="xygrid"
       id="grid4685" />
  </sodipodi:namedview>
  <metadata
     id="metadata5">
    <rdf:RDF>
      <cc:Work
         rdf:about="">
        <dc:format>image/svg+xml</dc:format>
        <dc:type
           rdf:resource="http://purl.org/dc/dcmitype/StillImage" />
        <dc:title></dc:title>
      </cc:Work>
    </rdf:RDF>
  </metadata>
  <g
     inkscape:label="Livello 1"
     inkscape:groupmode="layer"
     id="layer1"
     transform="translate(0,-292.76665)">
    <g
       id="g53807"
       transform="matrix(0.0297252,0,0,0.0297252,0.10328,288.0611)">
      <rect
         y="167.83784"
         x="7.3489103"
         height="122.04771"
         width="122.04771"
         id="rect1493"
         style="fill:none;fill-opacity:0.27027025;stroke:none;stroke-width:10.1706419;stroke-linecap:round;stroke-linejoin:round;stroke-miterlimit:4;stroke-dasharray:none;stroke-opacity:1" />
      <path
         style="fill:#bebebe;fill-opacity:1;stroke-width:0.23502147"
         d="M 1.75 1 C 1.5833334 1 1.4375 1.0208327 1.3125 1.0625 C 1.1875 1.1041658 1.1041667 1.1874995 1.0625 1.3125 C 1.0208333 1.4374998 1 1.5833337 1 1.75 L 1 2.25 L 1 2.75 L 1 3.25 L 1 3.75 L 1 4.25 L 1 4.75 L 1 5.25 L 1 5.75 L 1 6.25 L 1 6.75 L 1 7.25 L 1 7.75 L 1 8.25 L 1 8.75 L 1 9.25 L 1 9.75 L 1 10.25 L 1 10.75 L 1 11.25 L 1 11.75 L 1 12.25 L 1 12.75 L 1 13.25 L 1 13.75 L 1 14.25 C 1 14.416667 1.0208333 14.562501 1.0625 14.6875 C 1.1041667 14.8125 1.1875 14.895833 1.3125 14.9375 C 1.4375 14.979167 1.5833334 15 1.75 15 L 2.25 15 L 2.75 15 L 3.25 15 L 3.75 15 L 4.25 15 L 4.75 15 L 5.25 15 L 5.75 15 L 6.25 15 L 6.75 15 L 7.25 15 L 7.75 15 L 8.25 15 L 8.75 15 L 9.25 15 L 9.75 15 L 10.121094 15 L 10.25 15 L 10.416016 15 L 10.75 15 C 10.805556 15 10.854819 14.992402 10.896484 14.978516 C 10.938155 14.964627 10.96463 14.93815 10.978516 14.896484 C 10.992402 14.854817 11 14.805555 11 14.75 L 11 14.583984 L 11 14.416016 L 11 14.25 L 11 14.083984 L 11 13.916016 L 11 13.75 L 11 13.583984 L 11 13.416016 L 11 13.25 C 11 13.194445 10.992402 13.145184 10.978516 13.103516 C 10.964627 13.061847 10.938152 13.03537 10.896484 13.021484 C 10.854819 13.007598 10.805556 13 10.75 13 L 10.416016 13 L 10.25 13 L 10.121094 13 L 9.75 13 L 9.25 13 L 8.75 13 L 8.25 13 L 7.75 13 L 7.25 13 L 6.75 13 L 6.25 13 L 5.75 13 L 5.25 13 L 4.75 13 L 4.25 13 L 3.75 13 C 3.5833334 13 3.4375001 12.979167 3.3125 12.9375 C 3.1875 12.895833 3.1041667 12.8125 3.0625 12.6875 C 3.0208333 12.562499 3 12.416666 3 12.25 L 3 11.75 L 3 11.25 L 3 10.75 L 3 10.25 L 3 9.75 L 3 9.25 L 3 8.75 L 3 8.25 L 3 7.75 L 3 7.25 L 3 6.75 L 3 6.25 L 3 5.75 L 3 5.25 L 3 4.75 L 3 4.25 L 3 3.75 C 3 3.5833329 3.0208333 3.4374998 3.0625 3.3125 C 3.1041667 3.1875002 3.1875 3.1041666 3.3125 3.0625 C 3.4375001 3.0208327 3.5833334 3 3.75 3 L 4.25 3 L 4.75 3 L 5.25 3 L 5.75 3 L 6.25 3 L 6.75 3 L 7.25 3 L 7.75 3 L 8.25 3 L 8.75 3 L 9.25 3 L 9.75 3 L 10.25 3 L 10.75 3 L 11.25 3 L 11.75 3 L 12.25 3 C 12.416666 3 12.562499 3.0208327 12.6875 3.0625 C 12.8125 3.1041666 12.895833 3.1875002 12.9375 3.3125 C 12.979167 3.4374998 13 3.5833329 13 3.75 L 13 4.25 L 13 4.75 L 13 5.25 L 13 5.75 L 13 6.25 L 13 6.75 L 13 7.25 L 13 7.75 L 13 8.25 L 13 8.75 L 13 9.25 L 13 9.75 L 13 10.25 L 13 10.34375 L 13 10.416016 L 13 10.583984 L 13 10.75 C 13 10.805555 13.007595 10.854817 13.021484 10.896484 C 13.035373 10.938153 13.061849 10.96463 13.103516 10.978516 C 13.145182 10.992402 13.194444 11 13.25 11 L 13.416016 11 L 13.583984 11 L 13.75 11 L 13.916016 11 L 14.083984 11 L 14.25 11 L 14.416016 11 L 14.583984 11 L 14.75 11 C 14.805556 11 14.854819 10.992402 14.896484 10.978516 C 14.938155 10.964627 14.96463 10.93815 14.978516 10.896484 C 14.992402 10.854817 15 10.805555 15 10.75 L 15 10.34375 L 15 10.25 L 15 9.75 L 15 9.25 L 15 8.75 L 15 8.25 L 15 7.75 L 15 7.25 L 15 6.75 L 15 6.25 L 15 5.75 L 15 5.25 L 15 4.75 L 15 4.25 L 15 3.75 L 15 3.25 L 15 2.75 L 15 2.25 L 15 1.75 C 15 1.5833337 14.979167 1.4374998 14.9375 1.3125 C 14.895833 1.1874995 14.8125 1.1041658 14.6875 1.0625 C 14.562499 1.0208327 14.416666 1 14.25 1 L 13.75 1 L 13.25 1 L 12.75 1 L 12.25 1 L 11.75 1 L 11.25 1 L 10.75 1 L 10.25 1 L 9.75 1 L 9.25 1 L 8.75 1 L 8.25 1 L 7.75 1 L 7.25 1 L 6.75 1 L 6.25 1 L 5.75 1 L 5.25 1 L 4.75 1 L 4.25 1 L 3.75 1 L 3.25 1 L 2.75 1 L 2.25 1 L 1.75 1 z "
         transform="matrix(8.9009774,0,0,8.9009774,-3.474493,158.30171)"
         id="path52598" />
      <path
         inkscape:connector-curvature="0"
         id="path52612"
         d="m 41.586704,205.58815 q 0.556311,-1.66893 2.225245,-2.22524 1.668933,-0.55631 3.894177,-0.55631 2.225244,0 4.450489,0 2.225244,0 4.450488,0 2.225245,0 4.450489,0 2.225244,0 4.450489,0 2.225244,0 4.450488,0 2.225245,0 4.450489,0 2.225244,0 4.450488,0 2.225245,0 4.450489,0 2.225244,0 4.450492,0 2.225242,0 3.894175,0.55631 1.668934,0.55631 2.225242,2.22524 0.556308,1.66894 0.556308,3.89418 0,2.22525 0,4.45049 0,2.22524 0,4.45049 0,2.22525 0,4.45049 0,2.22524 0,4.45048 0,2.22525 0,4.4505 0,2.22524 0,4.45048 0,2.22525 0,4.45049 0,2.22524 0,4.4505 0,2.22524 0,4.45048 0,2.22524 -0.556308,3.89417 -0.556308,1.66894 -2.225242,2.22526 -1.668933,0.5563 -3.894175,0.5563 -2.225248,0 -4.450492,0 -2.225244,0 -4.450489,0 -2.225244,0 -4.450488,0 -2.225244,0 -4.450489,0 -2.225244,0 -4.450488,0 -2.225245,0 -4.450489,0 -2.225244,0 -4.450489,0 -2.225244,0 -4.450488,0 -2.225245,0 -4.450489,0 -2.225244,0 -3.894177,-0.5563 -1.668934,-0.55632 -2.225245,-2.22526 -0.55631,-1.66893 -0.55631,-3.89417 0,-2.22524 0,-4.45048 0,-2.22526 0,-4.4505 0,-2.22524 0,-4.45049 0,-2.22524 0,-4.45048 0,-2.22525 0,-4.4505 0,-2.22524 0,-4.45048 0,-2.22524 0,-4.45049 0,-2.22525 0,-4.45049 0,-2.22524 0,-4.45049 0,-2.22524 0.55631,-3.89418"
         style="fill:#bebebe;fill-opacity:1;stroke-width:2.09192085" />
      <path
         style="fill:#bebebe;fill-opacity:1;stroke-width:2.09192085"
         d="m 94.621698,257.13961 q 0.18544,-0.5563 0.741751,-0.74174 0.556311,-0.1854 1.298065,-0.1854 0.74174,0 1.483491,0 0.74175,0 1.48351,0 0.741735,0 1.483495,0 0.74174,0 1.48348,0 0.74176,0 1.48351,0 0.74176,0 1.4835,0 0.74174,0 1.4835,0 0.74174,0 1.4835,0 0.74174,0 1.4835,0 0.74175,0 1.29805,0.1854 0.55632,0.1854 0.74176,0.74174 0.1854,0.55633 0.1854,1.29807 0,0.74176 0,1.48351 0,0.74176 0,1.4835 0,0.74176 0,1.48351 0,0.74174 0,1.4835 0,0.74175 0,1.48351 0,0.74174 0,1.48349 0,0.74176 0,1.4835 0,0.74175 0,1.48351 0,0.74174 0,1.48351 0,0.74174 -0.1854,1.29806 -0.1854,0.5563 -0.74176,0.74174 -0.5563,0.1854 -1.29805,0.1854 -0.74176,0 -1.4835,0 -0.74176,0 -1.4835,0 -0.74176,0 -1.4835,0 -0.74174,0 -1.4835,0 -0.74175,0 -1.48351,0 -0.74174,0 -1.48348,0 -0.74176,0 -1.483495,0 -0.74176,0 -1.48351,0 -0.741751,0 -1.483491,0 -0.741754,0 -1.298065,-0.1854 -0.556313,-0.1854 -0.741751,-0.74174 -0.18544,-0.55632 -0.18544,-1.29806 0,-0.74177 0,-1.48351 0,-0.74176 0,-1.48351 0,-0.74174 0,-1.4835 0,-0.74175 0,-1.48349 0,-0.74176 0,-1.48351 0,-0.74176 0,-1.4835 0,-0.74175 0,-1.48351 0,-0.74174 0,-1.4835 0,-0.74175 0,-1.48351 0,-0.74174 0.18544,-1.29807"
         id="path833"
         inkscape:connector-curvature="0" />
      <path
         inkscape:connector-curvature="0"
         id="path844"
         d="m 112.42365,274.94156 q 0.18544,-0.5563 0.74175,-0.74174 0.55631,-0.1854 1.29807,-0.1854 0.74174,0 1.48349,0 0.74175,0 1.48351,0 0.74173,0 1.48349,0 0.74174,0 1.48348,0 0.74176,0 1.48351,0 0.74176,0 1.4835,0 0.74174,0 1.4835,0 0.74174,0 1.4835,0 0.74174,0 1.4835,0 0.74175,0 1.29805,0.1854 0.55632,0.1854 0.74176,0.74174 0.1854,0.55633 0.1854,1.29807 0,0.74176 0,1.48351 0,0.74176 0,1.4835 0,0.74176 0,1.48351 0,0.74174 0,1.4835 0,0.74175 0,1.48351 0,0.74174 0,1.48349 0,0.74176 0,1.4835 0,0.74175 0,1.48351 0,0.74174 0,1.48351 0,0.74174 -0.1854,1.29806 -0.1854,0.5563 -0.74176,0.74174 -0.5563,0.1854 -1.29805,0.1854 -0.74176,0 -1.4835,0 -0.74176,0 -1.4835,0 -0.74176,0 -1.4835,0 -0.74174,0 -1.4835,0 -0.74175,0 -1.48351,0 -0.74174,0 -1.48348,0 -0.74176,0 -1.48349,0 -0.74176,0 -1.48351,0 -0.74175,0 -1.48349,0 -0.74176,0 -1.29807,-0.1854 -0.55631,-0.1854 -0.74175,-0.74174 -0.18544,-0.55632 -0.18544,-1.29806 0,-0.74177 0,-1.48351 0,-0.74176 0,-1.48351 0,-0.74174 0,-1.4835 0,-0.74175 0,-1.48349 0,-0.74176 0,-1.48351 0,-0.74176 0,-1.4835 0,-0.74175 0,-1.48351 0,-0.74174 0,-1.4835 0,-0.74175 0,-1.48351 0,-0.74174 0.18544,-1.29807"
         style="fill:#bebebe;fill-opacity:1;stroke-width:2.09192085" />
    </g>
  </g>
</svg>
