<?xml version="1.0" encoding="UTF-8" standalone="no"?>
<svg
   xmlns="http://www.w3.org/2000/svg"
   height="16"
   width="16">
  <path
     d="M 2.249986,1 1.74999,1.0019 C 1.583315,1.0019 1.437502,1.02457 1.312495,1.06425 1.187508,1.10581 1.10417,1.189321 1.062482,1.314013 1.020832,1.439109 1,1.584584 1,1.751408 V 2.251276 2.751144 3.2510491 3.7509169 4.2507846 4.7506523 5.25052 5.7503878 6.2502933 6.750161 v 0.4998677 0.4998677 0.4998677 0.4998678 0.4999055 0.4998677 0.4998679 0.499867 0.499868 0.499868 0.499905 0.499868 0.499868 0.499868 0.499867 c 0,0.166636 0.02079,0.312489 0.06251,0.437408 0.04165,0.125071 0.124988,0.2082 0.250013,0.249764 0.124988,0.04156 0.270839,0.06235 0.437495,0.06235 h 0.499996 0.499996 0.499993 0.499996 0.499996 0.499992 0.499996 0.499996 0.499993 0.499996 0.499996 0.499992 0.499996 0.499996 0.499992 0.499997 0.37107 0.128918 0.166033 0.333993 c 0.05556,0 0.104806,-0.0076 0.146493,-0.02267 0.04169,-0.01511 0.06814,-0.04043 0.08201,-0.08199 0.01398,-0.04156 0.02154,-0.09069 0.02154,-0.146231 v -0.16588 -0.167769 -0.165879 -0.16588 -0.167769 -0.165879 -0.16588 -0.167768 -0.163991 c 0,-0.05554 -0.0076,-0.106555 -0.02154,-0.148498 -0.01398,-0.04156 -0.04036,-0.06801 -0.08201,-0.08199 -0.04169,-0.01511 -0.09093,-0.02267 -0.146493,-0.02267 H 10.41596 10.249927 10.121009 9.749939 9.249942 8.74995 8.249954 7.749958 7.249966 6.74997 6.249974 5.749981 5.249985 4.749989 4.249997 3.750001 c -0.166676,0 -0.312488,-0.02267 -0.437495,-0.06235 -0.124988,-0.04156 -0.208325,-0.12507 -0.250013,-0.249763 -0.04165,-0.125071 -0.06251,-0.270924 -0.06251,-0.43737 V 11.747667 11.247799 10.747894 10.248026 9.7481582 9.2482905 8.7484227 8.248555 7.7486495 7.2487818 6.7489141 6.2490463 5.7491786 5.2493109 4.7494054 4.2495377 3.7496699 c 0,-0.1666351 0.02079,-0.3124881 0.06251,-0.43737 0.04165,-0.1250708 0.124988,-0.2085774 0.250013,-0.2497638 0.124988,-0.041564 0.270838,-0.062346 0.437495,-0.062346 h 0.499996 0.499992 0.499996 0.499996 0.499993 0.499996 0.499996 0.499992 0.499996 0.499996 0.499992 0.499997 0.499992 0.499996 0.499996 0.499992 0.499996 c 0.166676,0 0.312488,0.022671 0.437495,0.062346 0.124988,0.041564 0.208325,0.1250708 0.250013,0.2497638 0.04165,0.1250708 0.06251,0.2709239 0.06251,0.43737 v 0.4998678 0.4998677 0.4999055 0.4998677 0.4998677 0.4998678 0.4998677 0.4998677 0.4999055 0.4998677 0.4998678 0.4998677 0.4998678 0.09371 0.07217 0.167769 0.165879 c 0,0.05555 0.0076,0.104667 0.02154,0.146609 0.01398,0.04156 0.04037,0.06802 0.08202,0.082 0.04169,0.01511 0.09093,0.02267 0.146493,0.02267 h 0.165995 0.167961 0.166032 0.165996 0.16796 0.166033 0.165995 0.167961 0.166032 c 0.05556,0 0.104806,-0.0076 0.146493,-0.02267 0.04169,-0.01511 0.06815,-0.04043 0.08202,-0.082 C 14.99244,10.852598 15,10.803098 15,10.747553 V 10.341432 10.247724 9.747856 9.2479883 8.7481206 8.2482529 7.7483473 7.2484796 6.7486119 6.2487442 5.7488765 5.2490087 4.7491032 4.2492355 3.7493678 3.2495001 2.749633 2.249764 1.749859 C 15,1.583223 14.97921,1.437371 14.93749,1.312489 14.89584,1.187418 14.812502,1.104289 14.687477,1.062725 14.562489,1.021165 14.416638,1.000375 14.249982,1.000375 H 13.749866 13.24987 12.749877 12.249881 11.749885 11.249893 10.749897 10.249901 9.749908 9.249912 8.74992 8.249924 7.749928 7.249935 6.749939 6.249943 5.749951 5.249955 4.749959 4.249967 3.74997 3.249974 2.749982 Z m 3.499965,4.0009451 c -0.166675,0 -0.312488,0.022672 -0.437498,0.062347 -0.124988,0.041564 -0.208326,0.1250708 -0.250014,0.2497638 -0.04165,0.1250708 -0.06251,0.2709238 -0.06251,0.43737 v 0.4999056 0.4998677 0.4998677 0.4998677 0.4998677 0.4998678 0.4999055 0.4998677 0.4998677 c 0,0.166635 0.02079,0.312488 0.06251,0.43737 0.04169,0.125071 0.124988,0.208578 0.250014,0.249764 0.124987,0.04156 0.270838,0.06235 0.437498,0.06235 h 0.499992 0.499996 0.499996 0.499993 0.499996 0.499996 0.499992 0.499996 0.499993 c 0.166675,0 0.312488,-0.02267 0.437498,-0.06235 0.124988,-0.04156 0.208325,-0.125071 0.250013,-0.249764 0.04165,-0.125071 0.06251,-0.270924 0.06251,-0.43737 V 9.7494429 9.2495752 8.7496697 8.2498019 7.7499342 7.2500665 6.7501988 6.2503311 5.7504255 c 0,-0.1666351 -0.02079,-0.3124881 -0.06251,-0.43737 C 10.895722,5.1879846 10.812425,5.1044781 10.687399,5.0632917 10.562411,5.0217277 10.416561,5.0009447 10.249901,5.0009447 H 9.749908 9.249912 8.74992 8.249924 7.749928 7.249935 6.749939 6.249943 Z m 5.499942,5.9965239 c -0.05556,0 -0.104805,0.0076 -0.146493,0.02267 -0.04169,0.01511 -0.06814,0.04043 -0.08202,0.082 -0.01398,0.04194 -0.02154,0.09106 -0.02154,0.146608 v 0.16588 0.167768 0.16588 0.165879 0.167769 0.165879 0.16588 0.167769 0.165879 c 0,0.05555 0.0076,0.104667 0.02154,0.146231 0.01398,0.04043 0.04037,0.06688 0.08202,0.082 0.04165,0.01511 0.09093,0.02267 0.146493,0.02267 h 0.166033 0.16796 0.165995 0.166033 0.167961 0.166033 0.165995 0.16796 0.166033 c 0.05556,0 0.104805,-0.0076 0.146493,-0.02267 0.04169,-0.01511 0.06814,-0.04043 0.08202,-0.082 0.01398,-0.04156 0.02154,-0.09069 0.02154,-0.146231 v -0.165879 -0.167769 -0.165879 -0.165879 -0.167769 -0.16588 -0.165879 -0.167769 -0.165879 c 0,-0.05555 -0.0076,-0.105045 -0.02154,-0.146609 -0.01398,-0.04043 -0.04037,-0.06688 -0.08202,-0.082 -0.04165,-0.01511 -0.09093,-0.02267 -0.146493,-0.02267 h -0.165995 -0.16796 -0.165996 -0.166033 -0.16796 -0.165995 -0.166033 -0.167961 z m 1.999977,1.999508 c -0.05556,0 -0.104806,0.0076 -0.146493,0.02267 -0.04169,0.01511 -0.06814,0.04043 -0.08201,0.082 -0.01398,0.04194 -0.02154,0.09106 -0.02154,0.146608 v 0.16588 0.167769 0.165879 0.16588 0.167768 0.16588 0.165879 0.167769 0.165879 c 0,0.05555 0.0076,0.105045 0.02154,0.146609 0.01398,0.04043 0.04037,0.06877 0.08201,0.08388 C 13.145027,14.992443 13.194307,15 13.24987,15 h 0.166032 0.167961 0.165995 0.166033 0.16796 0.165996 0.166032 0.167961 0.165995 c 0.05556,0 0.104805,-0.0076 0.146493,-0.02267 0.04169,-0.01511 0.06814,-0.04232 0.08201,-0.08388 0.01398,-0.04194 0.02154,-0.09106 0.02154,-0.146609 v -0.165879 -0.167769 -0.165879 -0.16588 -0.167768 -0.16588 -0.165879 -0.167769 -0.16588 c 0,-0.05555 -0.0076,-0.105044 -0.02154,-0.146608 -0.01398,-0.04043 -0.04036,-0.06688 -0.08201,-0.082 -0.04165,-0.01511 -0.09093,-0.02267 -0.146493,-0.02267 h -0.166033 -0.16796 -0.165995 -0.166033 -0.167961 -0.165995 -0.166033 -0.16796 z"
     fill="#474747" />
</svg>
